<?xml version="1.0" encoding="utf-8"?>
<!-- Generator: Adobe Illustrator 27.5.0, SVG Export Plug-In . SVG Version: 6.00 Build 0)  -->
<svg version="1.1" id="Layer_1" xmlns="http://www.w3.org/2000/svg" xmlns:xlink="http://www.w3.org/1999/xlink" x="0px" y="0px"
	 viewBox="0 0 4000 4000" style="enable-background:new 0 0 4000 4000;" xml:space="preserve">
<g>
	<g>
		<rect style="fill:#CCEEFF;" width="4000" height="4000"/>
	</g>
	<g>
		<g>
			<path style="fill:#A0A3A8;" d="M1138.902,3172.536v28.392c0,36.878-29.911,66.788-66.789,66.788h-35.358
				c-7.281,0-14.301-1.152-20.848-3.3c-26.663-8.801-45.94-33.892-45.94-63.488v-28.392H1138.902z"/>
		</g>
		<g>
			<path style="fill:#A0A3A8;" d="M3013.125,3267.716h-35.359c-36.886,0-66.788-29.902-66.788-66.788v-28.393h168.935v28.393
				C3079.913,3237.814,3050.011,3267.716,3013.125,3267.716z"/>
		</g>
		<g>
			<path style="fill:#C1C1C1;" d="M3084.836,3172.535H916.043c-151.498,0-274.311-122.813-274.311-274.311V1730.175
				c0-151.498,122.813-274.311,274.311-274.311h2168.792c151.498,0,274.312,122.813,274.312,274.311v1168.048
				C3359.147,3049.721,3236.334,3172.535,3084.836,3172.535z"/>
		</g>
		<g style="opacity:0.25;">
			<path style="fill:#371A45;" d="M3359.158,2811.721v86.484c0,151.492-122.838,274.33-274.33,274.33H916.064
				c-151.544,0-274.33-122.838-274.33-274.33v-86.484c0,151.492,122.786,274.331,274.33,274.331h2168.764
				C3236.321,3086.052,3359.158,2963.213,3359.158,2811.721z"/>
		</g>
		<g style="opacity:0.6;">
			<path style="fill:#FFFFFF;" d="M2593.318,1849.94v1069.139c0,70.927-57.464,128.391-128.391,128.391H941.208
				c-45.207,0-84.966-23.363-107.805-58.669c-13.043-20.063-20.586-44.002-20.586-69.722V1849.94
				c0-70.874,57.464-128.391,128.391-128.391h1523.719c30.382,0,58.355,10.529,80.303,28.287h0.052
				C2574.565,1773.356,2593.318,1809.447,2593.318,1849.94z"/>
		</g>
		<g style="opacity:0.6;">
			<path style="fill:#FFFFFF;" d="M3359.158,1730.167v70.298c0-151.491-122.838-274.277-274.33-274.277H916.064
				c-151.544,0-274.33,122.786-274.33,274.277v-70.298c0-151.491,122.786-274.278,274.33-274.278h2168.764
				C3236.321,1455.89,3359.158,1578.676,3359.158,1730.167z"/>
		</g>
		<g>
			<path style="fill:#371A45;" d="M2593.318,1796.485v1069.139c0,70.927-57.464,128.391-128.391,128.391H941.208
				c-45.207,0-84.966-23.363-107.805-58.669c-13.043-20.063-20.586-44.002-20.586-69.722V1796.485
				c0-70.875,57.464-128.391,128.391-128.391h1523.719c30.382,0,58.355,10.529,80.303,28.287h0.052
				C2574.565,1719.901,2593.318,1755.992,2593.318,1796.485z"/>
		</g>
		<g style="opacity:0.25;">
			<path style="fill:#371A45;" d="M2585.565,1752.535c-17.391-8.8-37.139-13.777-57.936-13.777H1003.91
				c-70.979,0-128.443,57.516-128.443,128.391v1069.139c0,15.453,2.724,30.225,7.7,43.897
				c-20.325-10.319-37.506-25.877-49.764-44.84c-13.043-20.063-20.586-44.002-20.586-69.722V1796.485
				c0-70.875,57.464-128.391,128.391-128.391h1523.719c30.382,0,58.355,10.529,80.303,28.287h0.052
				C2563.407,1710.943,2577.498,1730.272,2585.565,1752.535z"/>
		</g>
		<g style="opacity:0.7;">
			<path style="fill:#111A28;" d="M2593.318,1796.485v1069.139c0,70.927-57.464,128.391-128.391,128.391H941.208
				c-45.207,0-84.966-23.363-107.805-58.669c950.177-51.336,1522.514-462.595,1711.827-1238.965h0.052
				C2574.565,1719.901,2593.318,1755.992,2593.318,1796.485z"/>
		</g>
		<g>
			<path style="fill:#371A45;" d="M2464.932,3009.013H941.187c-79.055,0-143.369-64.316-143.369-143.369V1796.489
				c0-79.053,64.314-143.369,143.369-143.369h1523.745c79.055,0,143.369,64.316,143.369,143.369v1069.155
				C2608.302,2944.697,2543.988,3009.013,2464.932,3009.013z M941.187,1683.119c-62.512,0-113.369,50.859-113.369,113.369v1069.155
				c0,62.51,50.857,113.369,113.369,113.369h1523.745c62.512,0,113.369-50.859,113.369-113.369V1796.489
				c0-62.51-50.857-113.369-113.369-113.369H941.187z"/>
		</g>
		<g style="opacity:0.6;">
			<path style="fill:#FFFFFF;" d="M3114.466,3016.714h-238.042c-70.896,0-128.369-57.473-128.369-128.37V1819.188
				c0-70.897,57.473-128.37,128.369-128.37h238.042c70.896,0,128.369,57.473,128.369,128.37v1069.156
				C3242.836,2959.24,3185.363,3016.714,3114.466,3016.714z"/>
		</g>
		<g>
			<path style="fill:#FFFFFF;" d="M3075.766,2994.014h-238.042c-70.897,0-128.37-57.473-128.37-128.37V1796.489
				c0-70.896,57.473-128.37,128.37-128.37h238.042c70.896,0,128.37,57.473,128.37,128.37v1069.156
				C3204.136,2936.541,3146.663,2994.014,3075.766,2994.014z"/>
		</g>
		<g style="opacity:0.25;">
			<path style="fill:#371A45;" d="M3191.899,1741.744c-19.958-12.781-43.635-20.167-68.989-20.167h-238.029
				c-70.927,0-128.391,57.465-128.391,128.338v1069.191c0,19.591,4.4,38.24,12.31,54.845
				c-35.778-22.786-59.455-62.755-59.455-108.328V1796.485c0-70.875,57.464-128.391,128.391-128.391h238.029
				C3127.049,1668.094,3171.365,1698.214,3191.899,1741.744z"/>
		</g>
		<g>
			<path style="fill:#371A45;" d="M3075.767,3011.513h-238.042c-80.432,0-145.869-65.435-145.869-145.869V1796.489
				c0-80.435,65.437-145.869,145.869-145.869h238.042c80.432,0,145.869,65.435,145.869,145.869v1069.155
				C3221.636,2946.078,3156.199,3011.513,3075.767,3011.513z M2837.725,1685.619c-61.133,0-110.869,49.736-110.869,110.869v1069.155
				c0,61.133,49.736,110.869,110.869,110.869h238.042c61.133,0,110.869-49.736,110.869-110.869V1796.489
				c0-61.133-49.736-110.869-110.869-110.869H2837.725z"/>
		</g>
		<g>
			<path style="fill:#371A45;" d="M3084.835,3187.533H916.043c-159.526,0-289.312-129.785-289.312-289.312V1730.175
				c0-159.526,129.785-289.311,289.312-289.311h2168.792c159.526,0,289.312,129.785,289.312,289.311v1168.047
				C3374.146,3057.748,3244.361,3187.533,3084.835,3187.533z M916.043,1470.864c-142.986,0-259.312,116.328-259.312,259.311
				v1168.047c0,142.983,116.326,259.312,259.312,259.312h2168.792c142.986,0,259.312-116.328,259.312-259.312V1730.175
				c0-142.983-116.326-259.311-259.312-259.311H916.043z"/>
		</g>
		<g>
			<g>
				<path style="fill:#FFFFFF;" d="M1312.543,1430.379h-6.642c-64.06,0-114.668,54.347-110.109,118.244l46.737,655.145
					c4.165,58.384,53.176,103.367,111.702,102.523l871.728-12.58c61.956-0.894,111.041-52.596,108.719-114.515l-24.098-642.565
					c-2.225-59.315-50.955-106.252-110.312-106.252H1312.543z"/>
			</g>
			<g style="opacity:0.25;">
				<path style="fill:#371A45;" d="M2225.956,2293.705l-871.707,12.572c-58.564,0.838-107.542-44.106-111.733-102.513
					l-46.726-655.155c-1.1-15.558,1.048-30.54,5.919-44.264l40.807,572.233c4.19,58.407,53.169,103.352,111.733,102.513
					l871.707-12.572c50.811-0.733,92.927-35.621,105.185-82.294l3.563,94.97C2337.007,2241.112,2287.925,2292.814,2225.956,2293.705
					z"/>
			</g>
			<g>
				<path style="fill:#371A45;" d="M1352.611,2321.303c-65.61,0-120.361-50.815-125.044-116.465l-46.736-655.146
					c-2.468-34.595,9.67-68.994,33.306-94.375c23.635-25.381,57.083-39.936,91.765-39.936h894.365
					c67.725,0,122.764,53.013,125.303,120.688l24.099,642.568c1.274,34.014-10.93,66.343-34.365,91.03
					c-23.438,24.683-55.09,38.55-89.128,39.043l-871.729,12.583C1353.834,2321.303,1353.221,2321.303,1352.611,2321.303z
					 M1305.902,1445.38c-26.772,0-51.565,10.791-69.81,30.381c-18.245,19.595-27.244,45.093-25.339,71.792l46.736,655.146
					c3.564,49.941,45.22,88.604,95.127,88.604c0.469,0,0.928,0,1.396-0.01l871.729-12.583c25.896-0.371,49.976-10.918,67.805-29.702
					c17.83-18.779,27.114-43.369,26.143-69.248l-24.099-642.568c-1.929-51.484-43.801-91.811-95.322-91.811H1305.902z"/>
			</g>
			<g>
				<path style="fill:#FFFFFF;" d="M2265.871,2251.903l143.739,341.381c0,0-22.21,74.07-185.96,72.708
					c-31.011-0.21-67.103-3.195-109.114-9.848l-254.948-239.234c0,0-0.314,1.886-1.1,5.5c-1.152,5.238-3.405,14.143-7.229,26.453
					c-7.91,25.459-22.839,65.427-49.921,117.81c-4.295,8.277-8.853,16.868-13.777,25.72l129.648,123.1
					c-3.824,24.62-10.005,47.093-18.911,66.946c-27.658,61.864-81.77,98.847-174.907,98.952
					c-111.733-27.973-258.406-64.641-319.537-137.978c-61.131-73.336-35.359-449.604-35.359-449.604
					c-69.408-161.078-55.421-377.158-55.421-377.158s-2.986,1.729-8.381,4.819c-36.302,20.639-181.769,103.562-257.044,145.782
					c-86.432,48.454-98.899,114.562-117.233,148.611c-17.601,32.687-61.76,21.949-61.131-15.453c0-1.572,0.105-3.195,0.262-4.819
					c3.667-32.948-10.267-55.893-15.977-63.803c-1.415-1.938-2.357-2.986-2.357-2.986c-65.479-19.644-167.626,127.029-204.294,0
					c-7.229-25.039-7.753-49.606-2.933-73.284v-0.052c19.644-96.49,128.443-177.945,237.767-213.042
					c136.196-43.635,144.944-82.031,290.726-251.439c145.73-169.354,509.007-158.878,846.511-85.542
					c337.504,73.336,460.866,239.967,460.866,239.967l-213.985,340.175V2251.903z"/>
			</g>
			<g>
				<ellipse style="fill:#10AFFF;" cx="1905.877" cy="2018.457" rx="64.606" ry="68.457"/>
			</g>
			<g>
				<path style="fill:#371A45;" d="M2053.414,2079.218c-0.493,0-0.837-0.005-1.03-0.005c-8.284-0.093-14.924-6.88-14.834-15.166
					c0.093-8.228,6.79-14.834,14.998-14.834c0.051,0,0.105,0,0.159,0l0,0c29.18,0.122,106.57-7.583,112.476-46.816
					c5.215-34.629-2.036-55.894-7.62-66.406l-62.209,25.547c-7.661,3.149-16.426-0.508-19.573-8.179
					c-3.147-7.661,0.513-16.426,8.176-19.575l73.337-30.117c5.591-2.3,12.026-1.011,16.304,3.271
					c1.289,1.289,31.428,32.319,21.252,99.922C2184.256,2077.211,2066.634,2079.218,2053.414,2079.218z"/>
			</g>
			<g>
				<path style="fill:#371A45;" d="M1918.096,2731.386c-3.708,0-7.424-1.367-10.327-4.121l-129.646-123.101
					c-4.951-4.702-6.104-12.158-2.798-18.14c59.229-107.109,70.251-170.049,70.354-170.669c0.915-5.454,4.758-9.98,10-11.748
					c5.234-1.772,11.03-0.527,15.063,3.257l254.932,239.214c6.042,5.669,6.343,15.161,0.674,21.201
					c-5.667,6.04-15.159,6.353-21.201,0.674l-236.245-221.68c-8.088,27.803-25.586,77.021-61.755,144.077l121.282,115.156
					c6.006,5.703,6.253,15.2,0.547,21.206C1926.028,2729.819,1922.066,2731.386,1918.096,2731.386z"/>
			</g>
			<g>
				<path style="fill:#371A45;" d="M1724.29,2897.27c-1.204,0-2.427-0.146-3.65-0.454
					c-117.248-29.312-263.169-65.796-327.417-142.891c-61.526-73.828-42.534-403.589-39.043-456.646
					c-54.758-129.717-57.595-289.966-56.248-353.335c-51.504,29.36-175.166,99.78-242.056,137.285
					c-65.232,36.567-85.427,83.862-100.173,118.398c-3.747,8.779-7.29,17.07-11.164,24.268
					c-11.853,22.007-34.67,32.168-56.787,25.269c-18.406-5.737-35.508-24.766-32.222-54.336c2.893-26.04-7.061-44.36-12.034-51.689
					c-18.648-2.485-44.365,11.606-69.27,25.308c-33.235,18.276-67.61,37.183-98.24,24.453
					c-19.529-8.105-33.459-27.422-42.588-59.048c-38.85-134.585,97.073-257.49,244.685-304.8
					c106.45-34.121,131.465-64.297,214.351-164.272c19.726-23.794,42.083-50.762,69.541-82.671
					c70.298-81.685,192.026-128.442,361.804-138.979c140.383-8.721,313.032,8.076,499.297,48.545
					c339.131,73.691,464.57,238.691,469.744,245.679c3.677,4.966,3.933,11.68,0.64,16.914l-211.716,336.538v158.955l142.581,338.574
					c3.215,7.632-0.366,16.431-8,19.644c-7.642,3.218-16.433-0.361-19.646-8.003l-143.757-341.362
					c-0.776-1.841-1.177-3.823-1.177-5.82v-166.313c0-2.827,0.798-5.596,2.302-7.988l208.23-330.991
					c-29.119-33.125-159.622-164.375-445.571-226.509c-408.267-88.711-711.516-59.297-831.99,80.688
					c-27.278,31.694-49.541,58.55-69.185,82.246c-84.895,102.402-113.494,136.899-228.291,173.691
					c-136.038,43.604-257.398,155.737-225.017,267.915c6.348,21.992,14.849,35.337,25.268,39.663
					c17.31,7.207,45.254-8.174,72.28-23.037c32.293-17.754,65.703-36.123,96.643-26.831c2.642,0.791,5.012,2.295,6.855,4.346
					c1.118,1.25,27.344,31.084,22.075,78.467c-1.492,13.433,4.88,20.371,11.338,22.388c6.16,1.929,15.474,0.229,21.443-10.859
					c3.232-5.996,6.362-13.33,9.988-21.821c15.51-36.328,38.953-91.226,113.093-132.788
					c85.393-47.871,263.518-149.521,265.308-150.542c4.79-2.739,10.701-2.622,15.378,0.308c4.68,2.92,7.378,8.179,7.024,13.687
					c-0.137,2.124-12.888,214.458,54.246,370.254c0.945,2.192,1.353,4.58,1.191,6.963c-7.046,102.993-15.044,382.642,31.916,438.989
					c57.979,69.575,204.592,106.23,311.648,132.998c8.037,2.007,12.922,10.151,10.913,18.188
					C1737.127,2892.719,1731.011,2897.27,1724.29,2897.27z"/>
			</g>
			<g>
				<path style="fill:#371A45;" d="M1636.768,2874.516c-6.582,0-12.62-4.365-14.451-11.021c-2.2-7.988,2.49-16.245,10.476-18.447
					c147.49-40.625,174.312-219.99,174.565-221.797c1.15-8.208,8.743-13.994,16.938-12.769c8.203,1.152,13.921,8.735,12.768,16.938
					c-1.147,8.174-30.019,200.752-196.304,246.553C1639.429,2874.34,1638.087,2874.516,1636.768,2874.516z"/>
			</g>
			<g>
				<path style="fill:#371A45;" d="M1298.988,1916.458l27.183-167.415l2.738,169.585
					C1328.328,1940.269,1296.448,1937.988,1298.988,1916.458L1298.988,1916.458z"/>
			</g>
			<g>
				<path style="fill:#371A45;" d="M1678.092,2199.955c-60.725,0-116.067-0.146-154.482-0.552
					c-37.227-0.396-67.512-31.011-67.512-68.252v-271.23c0-37.637,30.62-68.257,68.257-68.257h458.035
					c11.565,0,23.198,2.632,33.638,7.608l10.557,5.024c24.888,11.865,40.967,37.339,40.967,64.907v234.565
					c0,52.393-42.622,95.21-95.012,95.439C1895.24,2199.545,1779.222,2199.955,1678.092,2199.955z M1524.354,1821.664
					c-21.094,0-38.257,17.163-38.257,38.257v271.23c0,20.874,16.97,38.032,37.83,38.252c102.195,1.084,324.854,0.342,448.479-0.195
					c35.92-0.156,65.144-29.517,65.144-65.439v-234.565c0-16.064-9.37-30.913-23.87-37.822l-10.559-5.024
					c-6.438-3.071-13.606-4.692-20.732-4.692H1524.354z"/>
			</g>
			<g>
				<path style="fill:#371A45;" d="M2052.55,1944.75c-8.284,0-15-6.714-15-15c0-16.064-9.37-30.913-23.87-37.822l-10.559-5.024
					c-6.438-3.071-13.606-4.692-20.732-4.692h-458.035c-21.094,0-38.257,17.163-38.257,38.257c0,8.286-6.716,15-15,15
					s-15-6.714-15-15c0-37.637,30.62-68.257,68.257-68.257h458.035c11.565,0,23.198,2.632,33.638,7.607l10.557,5.025
					c24.888,11.865,40.967,37.339,40.967,64.907C2067.55,1938.036,2060.833,1944.75,2052.55,1944.75z"/>
			</g>
			<g>
				<g>
					<path style="fill:#FFFFFF;" d="M2570.269,1975.163c0,0-29.334,96.909-104.19,100.418c-24.882,52.174-64.85,54.636-113.2,29.23
						c-24.096,9.429-45.521,13.463-62.022,7.49c-9.429-3.3-17.286-9.9-23.101-20.586c-63.069,20.481-103.142-10.214-96.909-144.053
						c0,0-68.098,55.002-116.552,49.764c-48.454-5.238-43.216-65.479,0-115.243c43.216-49.764,143.634-137.087,284.597-105.186
						c0,0,84.703-70.298,181.612-13.986c0,0,0,0,0.052,0.052C2617.414,1819.376,2599.08,1947.662,2570.269,1975.163z"/>
				</g>
				<g>
					<path style="fill:#371A45;" d="M2405.716,2135.566c-16.172,0-33.96-4.78-53.735-14.399
						c-41.736,14.917-72.136,10.859-90.61-12.046c-27.385,6.675-50.024,3.335-67.417-9.937
						c-25.457-19.429-38.208-59.429-38.718-121.865c-26.03,16.938-67.385,38.838-102.551,35.02
						c-21.211-2.29-36.755-13.399-43.77-31.274c-11.414-29.077,1.953-71.748,34.055-108.716
						c38.208-43.989,142.432-141.821,292.515-111.44c22.441-15.532,103.242-62.764,192.559-10.864
						c44.512,25.864,72.534,69.727,78.904,123.506c5.046,42.603-4.976,88.486-23.479,109.502
						c-6.24,18.115-37.388,97.319-107.798,106.704c-12.004,21.689-27.588,35.83-46.414,42.09
						C2421.798,2134.321,2413.966,2135.566,2405.716,2135.566z M2352.879,2089.814c2.402,0,4.8,0.576,6.975,1.719
						c24.57,12.905,44.746,16.899,59.941,11.841c13.12-4.36,23.84-15.571,32.773-34.272c2.383-4.985,7.314-8.262,12.834-8.521
						c63.198-2.954,90.251-88.916,90.518-89.785c0.752-2.461,2.131-4.702,3.989-6.479c10.388-9.917,22.158-45.747,17.244-87.236
						c-3.701-31.255-17.842-74.17-64.185-101.099c-86.362-50.181-161.36,9.98-164.509,12.568c-3.579,2.935-8.345,4.097-12.854,3.062
						c-137.908-31.138-234.751,59.839-269.985,100.405c-26.87,30.947-34.819,62.705-28.782,78.091
						c1.821,4.639,5.779,10.967,19.067,12.407c34.683,3.682,87.922-32.315,105.515-46.524c4.597-3.706,10.942-4.38,16.206-1.709
						c5.269,2.666,8.479,8.179,8.203,14.077c-3.982,85.303,12.117,116.133,26.321,126.973c11.543,8.813,28.215,9.512,50.977,2.119
						c6.846-2.236,14.333,0.747,17.793,7.075c7.205,13.193,20.732,24.258,66.482,6.323
						C2349.168,2090.156,2351.026,2089.814,2352.879,2089.814z"/>
				</g>
				<g>
					<path style="fill:#371A45;" d="M2539.268,2048.632c-1.399,0-2.817-0.195-4.226-0.61c-7.952-2.329-12.505-10.664-10.176-18.613
						c36.687-125.142-126.729-218.32-190.405-238.101c-7.91-2.461-12.332-10.864-9.873-18.774s10.862-12.329,18.774-9.878
						c39.631,12.314,100.259,44.37,146.372,88.232c60.737,57.773,82.839,122.422,63.921,186.958
						C2551.737,2044.389,2545.755,2048.632,2539.268,2048.632z"/>
				</g>
				<g>
					<path style="fill:#371A45;" d="M2156.866,1942.231c17.032-28.699,35.733-56.715,58.944-80.564
						c-14.552,28.912-23.667,60.184-30.98,91.426C2178.59,1975.542,2146.316,1963.013,2156.866,1942.231L2156.866,1942.231z"/>
				</g>
				<g>
					<path style="fill:#371A45;" d="M2252.793,2092.747c2.485-59.439,8.557-120.572,32.86-175.205
						c-7.749,28.477-9.496,57.732-9.447,86.765c0.254,28.757,2.445,58.287,6.538,86.531
						C2285.042,2112.291,2253.257,2114.364,2252.793,2092.747L2252.793,2092.747z"/>
				</g>
				<g>
					<path style="fill:#371A45;" d="M2337.909,2103.872c8.321-45.727,17.535-91.427,31.559-135.693
						c-4.128,45.777-3.306,91.809-1.616,137.6C2367.827,2127.88,2335.139,2125.835,2337.909,2103.872L2337.909,2103.872z"/>
				</g>
				<g>
					<path style="fill:#371A45;" d="M2451.255,2077.693c0.696-34.274,5.101-68.038,14.848-100.784
						c0.324,32.538,5.877,65.45,14.849,96.526C2486.483,2096.014,2452.299,2100.936,2451.255,2077.693L2451.255,2077.693z"/>
				</g>
				<g style="opacity:0.25;">
					<path style="fill:#371A45;" d="M2570.269,1975.163c0,0-29.334,96.909-104.19,100.418c-24.882,52.174-64.85,54.636-113.2,29.23
						c-24.096,9.429-45.521,13.463-62.022,7.49c6.915-6.6,18.701-28.339,21.425-99.161c3.929-101.99,65.479-95.599,65.479-95.599
						c92.089,0,74.332-79.099,74.332-79.099l34.521,30.487c74.908-20.796,35.254-103.142,33.944-105.866
						C2617.414,1819.376,2599.08,1947.662,2570.269,1975.163z"/>
				</g>
			</g>
			<g>
				<path style="fill:#371A45;" d="M1776.666,2184.062c-8.284,0-15-6.714-15-15v-52.881c0-19.766-10.581-38.271-27.612-48.301
					l-50.476-29.717c-26.15-15.396-42.393-43.809-42.393-74.155v-84.009c0-8.286,6.716-15,15-15s15,6.714,15,15v84.009
					c0,19.766,10.581,38.276,27.612,48.306l50.476,29.717c26.15,15.395,42.392,43.808,42.392,74.15v52.881
					C1791.666,2177.348,1784.949,2184.062,1776.666,2184.062z"/>
			</g>
			<g>
				<path style="fill:#371A45;" d="M1905.877,2101.484c-43.657,0-79.175-37.246-79.175-83.027s35.517-83.027,79.175-83.027
					c43.657,0,79.177,37.246,79.177,83.027S1949.534,2101.484,1905.877,2101.484z M1905.877,1964.57
					c-27.59,0-50.034,24.175-50.034,53.887s22.444,53.887,50.034,53.887c27.59,0,50.037-24.175,50.037-53.887
					S1933.468,1964.57,1905.877,1964.57z"/>
			</g>
			<g>
				<path style="fill:#FFFFFF;" d="M1457.784,2031.475c-73.991,15.06-137.724-6.943-137.724-6.943
					c-20.576-54.255-24.296-96.115,6.111-112.883c50.419,18.334,131.613,5.893,131.613,5.893h9.822v111.969L1457.784,2031.475z"/>
			</g>
			<g>
				<path style="fill:#371A45;" d="M1403.9,2051.772c-50.144,0-86.692-12.358-88.735-13.062c-4.207-1.455-7.551-4.697-9.131-8.862
					c-9.636-25.41-38.965-102.734,12.893-131.333c3.796-2.085,8.306-2.437,12.371-0.962c46.16,16.787,123.445,5.278,124.221,5.161
					c0.747-0.112,1.509-0.171,2.266-0.171h9.822c8.284,0,15,6.714,15,15v111.968c0,7.153-5.049,13.306-12.061,14.707l-9.802,1.963
					C1440.731,2050.253,1421.478,2051.772,1403.9,2051.772z M1331.531,2012.294c17.271,4.697,66.353,15.518,121.074,4.917v-83.838
					c-20.759,2.524-80.024,8.013-124.243-5.21C1320.23,1935.175,1310.567,1953.798,1331.531,2012.294z"/>
			</g>
			<g>
				<path style="fill:#371A45;" d="M1647.018,2381.133c129.485,22.767,237.546,40.385,357.514-28.813
					C1918.491,2458.008,1754.344,2446.947,1647.018,2381.133L1647.018,2381.133z"/>
			</g>
			<g>
				<path style="fill:#371A45;" d="M1798.237,2604.653l-81.812,50.618l62.242-73.357
					C1794.663,2565.009,1817.343,2591.345,1798.237,2604.653L1798.237,2604.653z"/>
			</g>
			<g>
				<path style="fill:#371A45;" d="M1109.671,2039.531c-0.391,0-0.784-0.015-1.182-0.044
					c-150.164-11.685-176.619-209.907-177.671-218.34c-1.025-8.223,4.807-15.718,13.027-16.743
					c8.201-0.977,15.711,4.8,16.741,13.013l0,0c0.229,1.821,24.5,182.378,150.232,192.158c8.259,0.645,14.434,7.861,13.789,16.118
					C1123.997,2033.559,1117.425,2039.531,1109.671,2039.531z"/>
			</g>
			<g>
				<g>
					<path style="fill:#FFFFFF;" d="M1225.908,965.094l-66.376,24.7c-38.879,14.468-64.89,51.317-65.503,92.795l-2.833,191.749
						c-0.697,47.172,31.481,88.493,77.387,99.372l83.625,19.82"/>
				</g>
				<g>
					<path style="fill:#FFFFFF;" d="M2283.061,980.715l65.617,26.65c38.434,15.61,63.345,53.212,62.732,94.69l-2.833,191.749
						c-0.697,47.172-34.082,87.524-80.29,97.043l-84.175,17.34"/>
				</g>
				<g style="opacity:0.25;">
					<path style="fill:#371A45;" d="M1252.203,1393.525l-83.645-19.801c-45.858-10.881-78.064-52.221-77.367-99.386l1.608-108.843
						c-0.697,47.165,31.51,88.506,77.367,99.386l75.259,17.837L1252.203,1393.525z"/>
				</g>
				<g style="opacity:0.25;">
					<path style="fill:#371A45;" d="M2410.16,1184.96l-1.608,108.843c-0.697,47.166-34.058,87.536-80.27,97.057l-84.193,17.321
						l10.102-110.611l75.699-15.554C2376.102,1272.497,2409.463,1232.126,2410.16,1184.96z"/>
				</g>
				<g>
					<path style="fill:#371A45;" d="M1252.22,1408.535c-1.145,0-2.307-0.132-3.472-0.41l-83.625-19.819
						c-53.167-12.598-89.734-59.556-88.923-114.185l2.832-191.748c0.708-48.027,30.254-89.888,75.269-106.636l66.377-24.702
						c7.771-2.891,16.399,1.064,19.29,8.828c2.891,7.764-1.062,16.396-8.826,19.287l-66.377,24.702
						c-33.333,12.402-55.21,43.398-55.737,78.96l-2.832,191.748c-0.598,40.454,26.479,75.225,65.847,84.556l83.625,19.819
						c8.062,1.909,13.047,9.995,11.135,18.052C1265.169,1403.886,1259.014,1408.535,1252.22,1408.535z"/>
				</g>
				<g>
					<path style="fill:#371A45;" d="M2244.097,1423.193c-6.97,0-13.215-4.888-14.678-11.978c-1.67-8.115,3.552-16.05,11.665-17.72
						l84.175-17.339c39.626-8.164,67.72-42.119,68.32-82.573l2.834-191.748c0.525-35.562-20.43-67.188-53.381-80.571l-65.618-26.65
						c-7.676-3.115-11.37-11.865-8.252-19.541c3.115-7.676,11.868-11.377,19.541-8.252l65.618,26.65
						c44.502,18.071,72.798,60.781,72.087,108.804l-2.834,191.748c-0.808,54.634-38.748,100.493-92.261,111.519l-84.175,17.339
						C2246.116,1423.09,2245.098,1423.193,2244.097,1423.193z"/>
				</g>
				<g>
					
						<ellipse transform="matrix(0.7071 -0.7071 0.7071 0.7071 -298.0224 1572.3131)" style="fill:#FFFFFF;" cx="1748.939" cy="1145.901" rx="580.374" ry="580.374"/>
				</g>
				<g style="opacity:0.25;">
					<path style="fill:#371A45;" d="M1740.371,1726.207c-132.944-1.968-254.742-48.483-351.497-125.119
						c59.368,21.659,123.284,33.859,189.992,34.834c320.466,4.741,584.14-251.231,588.883-571.737
						c2.736-187.563-83.792-355.691-220.316-463.807c225.818,82.105,385.591,300.254,381.821,554.091
						C2324.511,1474.975,2060.876,1730.95,1740.371,1726.207z"/>
				</g>
				<g>
					<path style="fill:#371A45;" d="M2328.968,1173.512c-3.769,255.082-266.613,458.057-587.135,453.321
						c-292.222-4.318-531.473-179.79-568.486-404.116c-3.623-21.68-5.332-43.842-4.999-66.355
						c3.769-255.082,266.612-457.993,587.134-453.257c240.837,3.559,445.67,123.372,531.039,290.909l-0.001,0.064
						C2314.77,1049.519,2329.904,1110.171,2328.968,1173.512z"/>
				</g>
				<g style="opacity:0.7;">
					<path style="fill:#111A28;" d="M2328.968,1173.512c-3.769,255.082-266.613,458.057-587.135,453.321
						c-292.222-4.318-531.473-179.79-568.486-404.116c4.342-5.406,6.866-8.358,6.866-8.358
						c263.751,445.984,1083.091,270.442,1106.308-220.281C2314.77,1049.519,2329.904,1110.171,2328.968,1173.512z"/>
				</g>
				<g>
					<path style="fill:#371A45;" d="M1749.18,1741.274c-3.013,0-6.018-0.02-9.038-0.063
						c-159.014-2.354-307.593-66.484-418.372-180.581c-110.776-114.102-170.491-264.512-168.14-423.521
						c2.349-159.014,66.482-307.598,180.581-418.374c114.099-110.776,264.285-170.513,423.523-168.145
						c159.014,2.354,307.593,66.484,418.372,180.586c110.776,114.097,170.491,264.507,168.14,423.521
						c-2.349,159.014-66.482,307.593-180.581,418.374C2051.732,1681.743,1904.844,1741.274,1749.18,1741.274z M1748.709,580.527
						c-147.83,0-287.3,56.528-393.599,159.732c-108.352,105.195-169.253,246.289-171.484,397.29
						c-2.232,151.001,54.475,293.833,159.67,402.183c105.195,108.35,246.289,169.248,397.29,171.479
						c150.994,2.427,293.831-54.473,402.18-159.668c108.352-105.195,169.253-246.284,171.484-397.285
						s-54.475-293.833-159.67-402.188c-105.195-108.35-246.289-169.248-397.29-171.479
						C1754.434,580.546,1751.561,580.527,1748.709,580.527z"/>
				</g>
				<g>
					<path style="fill:#371A45;" d="M2329.393,1159.155c-0.071,0-0.142,0-0.212-0.005c-7.783-0.112-14.001-6.519-13.887-14.302
						c3.882-262.598-246.965-479.995-559.177-484.609c-151.88-2.246-294.917,45.474-403.32,134.36
						c-107.71,88.315-168.062,206.763-169.934,333.516c-0.117,7.778-6.711,14.102-14.302,13.882
						c-7.783-0.112-14.001-6.519-13.887-14.302c2-135.19,66.013-261.226,180.249-354.893
						c113.545-93.101,263.311-143.11,421.609-140.747c327.756,4.844,591.06,235.068,586.951,513.213
						C2343.367,1152.978,2337.078,1159.155,2329.393,1159.155z"/>
				</g>
				<g style="opacity:0.5;">
					<path style="fill:#FFFFFF;" d="M2088.197,1402.294c45.409-214.919-19.033-398.002-181.601-552.646
						c-20.075-19.096,2.122-51.502,27.093-39.496c315.78,151.826,374.978,435.883,195.335,614.354
						C2111.892,1441.526,2083.205,1425.922,2088.197,1402.294z"/>
				</g>
				<g style="opacity:0.5;">
					<path style="fill:#FFFFFF;" d="M1373.571,1159.783c-0.706,30.513,1.739,75.196,15.793,124.787
						c7.226,25.496-6.814,52.197-31.879,60.801l0,0c-22.41,7.692-47.212-1.349-59.271-21.744
						c-30.422-51.448-49.143-112.784-39.264-174.716c5.579-34.977,41.764-56.222,75.332-44.921h0
						C1358.157,1112.028,1374.153,1134.598,1373.571,1159.783z"/>
				</g>
				<g style="opacity:0.5;">
					<path style="fill:#FFFFFF;" d="M1443.158,920.958L1443.158,920.958c11.603,14.778,12.276,35.376,1.661,50.88l-27.937,40.805
						c-11.976,17.492-34.909,23.655-54.04,14.523l-3.09-1.475c-23.648-11.289-31.946-40.99-17.271-62.7
						c8.848-13.089,20.356-28.301,34.922-44.354C1395.31,898.901,1426.702,899.999,1443.158,920.958z"/>
				</g>
			</g>
			<g style="opacity:0.25;">
				<path style="fill:#371A45;" d="M2266.744,1589.755c-87.038,144.772-378.327,278.586-670.8,136.516
					c251.828,25.616,450.095-24.01,574.904-176.831L2266.744,1589.755z"/>
			</g>
			<g style="opacity:0.25;">
				<path style="fill:#371A45;" d="M1326.171,1726.291l-6.129,70.77l-6.077,82.922l-8.381,42.378
					c-36.302,20.639-181.769,103.562-257.044,145.783c-86.432,48.454-98.899,114.562-117.233,148.611
					c-17.601,32.687-61.76,21.949-61.131-15.453c26.768-13.986,45.678-87.322,52.645-133.577
					c6.967-46.307,55.893-62.021,162.388-137.977C1191.704,1853.791,1326.171,1726.291,1326.171,1726.291z"/>
			</g>
			<g style="opacity:0.25;">
				<path style="fill:#371A45;" d="M854.462,2132.68c-1.414-1.939-2.357-2.986-2.357-2.986
					c-65.479-19.644-167.626,127.029-204.294,0c-7.229-25.039-7.753-49.607-2.934-73.284c0.89,2.619,29.177,83.76,195.441-31.902
					C840.318,2024.508,881.858,2055.1,854.462,2132.68z"/>
			</g>
			<g style="opacity:0.25;">
				<path style="fill:#371A45;" d="M1990.105,2363.629c-33.736,97.869,7.947,177.129,62.444,253.227
					c0,0-195.563-193.818-190.325-193.818c5.238,0,71.59-27.938,71.59-27.938"/>
			</g>
			<g style="opacity:0.25;">
				<path style="fill:#371A45;" d="M1917.21,2715.493c-3.824,24.62-10.005,47.093-18.911,66.946
					c-16.92,9.428-44.944,12.834-90.203,3.771c-157.149-31.43-193.817-160.868-193.817-160.868
					c62.86-108.486,58.145-235.357,58.145-235.357l186.065,32.426l3.719,0.628l-10.948,25.824l-49.921,117.81
					c-4.295,8.277-8.853,16.868-13.777,25.72L1917.21,2715.493z"/>
			</g>
			<g style="opacity:0.25;">
				<path style="fill:#371A45;" d="M2409.611,2593.284c0,0-22.21,74.07-185.96,72.708c18.963-29.021,64.955-119.958-6.967-233.786
					c-75.903-120.063-102.776-181.35-95.127-233c-0.21,0.471-0.419,0.89-0.629,1.31c-23.048,44.945-70.717,71.922-121.214,71.922
					h-418.332c-12.729,0-25.301-1.938-37.349-5.71c-11.996-3.771-23.415-9.376-33.892-16.657
					c-17.653-12.258-28.13-32.32-28.13-53.797v-91.461c192.298,18.282,374.801-18.386,537.869-163.016l9.534,54.007
					c24.777,39.026,100.261-11.419,104.661-14.405c0.157-0.105,0.21-0.157,0.21-0.157l35.673-30.539l32.74,141.016l56.783,13.096
					l6.391,64.588v82.503L2409.611,2593.284z"/>
			</g>
		</g>
		<g>
			<circle style="fill:#7BA2FF;" cx="2957.468" cy="1880.001" r="146.236"/>
		</g>
		<g style="opacity:0.25;">
			<path style="fill:#371A45;" d="M3103.687,1879.983c0,80.775-65.479,146.254-146.201,146.254
				c-50.916,0-95.756-26.034-121.895-65.479c20.01,10.319,42.64,16.134,66.684,16.134c80.722,0,146.201-65.479,146.201-146.201
				c0-29.911-8.958-57.674-24.41-80.827C3071.314,1774.012,3103.687,1823.252,3103.687,1879.983z"/>
		</g>
		<g style="opacity:0.25;">
			<path style="fill:#371A45;" d="M3146.737,1933.728c0,80.775-65.479,146.254-146.201,146.254
				c-50.916,0-95.756-26.034-121.895-65.479c20.01,10.319,42.64,16.134,66.684,16.134c80.722,0,146.201-65.479,146.201-146.201
				c0-29.911-8.957-57.674-24.41-80.827C3114.364,1827.757,3146.737,1876.997,3146.737,1933.728z"/>
		</g>
		<g style="opacity:0.6;">
			<path style="fill:#FFFFFF;" d="M3096.981,1836.138c-23.363-35.359-61.655-59.978-105.918-64.798v72.132
				c0,5.657-4.557,10.268-10.215,10.268h-24.044c-5.657,0-10.267-4.61-10.267-10.268v-70.246
				c-67.208,13.201-117.862,72.394-117.862,143.425c0,15.296,2.357,30.016,6.705,43.845c-15.296-23.101-24.148-50.759-24.148-80.513
				c0-80.723,65.479-146.201,146.253-146.201C3022.912,1733.782,3078.385,1776.841,3096.981,1836.138z"/>
		</g>
		<g>
			<path style="fill:#371A45;" d="M2957.467,2043.735c-90.283,0-163.735-73.452-163.735-163.735s73.452-163.735,163.735-163.735
				c90.286,0,163.738,73.452,163.738,163.735S3047.752,2043.735,2957.467,2043.735z M2957.467,1751.264
				c-70.984,0-128.735,57.749-128.735,128.735s57.751,128.735,128.735,128.735c70.986,0,128.738-57.749,128.738-128.735
				S3028.453,1751.264,2957.467,1751.264z"/>
		</g>
		<g>
			<path style="fill:#371A45;" d="M2969.472,1737.039h-24.009c-5.666,0-10.259,4.593-10.259,10.258v85.995
				c0,5.666,4.593,10.258,10.259,10.258h24.009c5.666,0,10.258-4.593,10.258-10.258v-85.995
				C2979.73,1741.631,2975.138,1737.039,2969.472,1737.039z"/>
		</g>
		<g>
			<circle style="fill:#787A75;" cx="2820.16" cy="2242.693" r="55.221"/>
		</g>
		<g>
			<circle style="fill:#787A75;" cx="2962.468" cy="2242.693" r="55.221"/>
		</g>
		<g>
			<circle style="fill:#787A75;" cx="3104.775" cy="2242.693" r="55.221"/>
		</g>
		<g style="opacity:0.6;">
			<path style="fill:#FFFFFF;" d="M2875.61,2244.726c0,30.487-24.725,55.212-55.212,55.212c-27.92,0-51.021-20.744-54.688-47.669
				c9.01,18.177,27.763,30.645,49.45,30.645c30.487,0,55.212-24.725,55.212-55.212c0-2.514-0.157-5.029-0.524-7.49
				C2873.568,2227.597,2875.61,2235.927,2875.61,2244.726z"/>
		</g>
		<g style="opacity:0.6;">
			<path style="fill:#FFFFFF;" d="M3017.935,2244.726c0,30.487-24.725,55.212-55.212,55.212c-27.972,0-51.021-20.744-54.688-47.669
				c9.01,18.177,27.763,30.645,49.45,30.645c30.487,0,55.212-24.725,55.212-55.212c0-2.514-0.157-5.029-0.524-7.49
				C3015.892,2227.597,3017.935,2235.927,3017.935,2244.726z"/>
		</g>
		<g style="opacity:0.6;">
			<path style="fill:#FFFFFF;" d="M3160.208,2244.726c0,30.487-24.673,55.212-55.212,55.212c-27.92,0-51.021-20.744-54.688-47.669
				c9.01,18.177,27.763,30.645,49.45,30.645c30.539,0,55.212-24.725,55.212-55.212c0-2.514-0.157-5.029-0.524-7.49
				C3158.165,2227.597,3160.208,2235.927,3160.208,2244.726z"/>
		</g>
		<g>
			<path style="fill:#787A75;" d="M2992.984,2904.725h-41.033c-9.644,0-17.461-7.818-17.461-17.461v-469.702
				c0-9.643,7.818-17.461,17.461-17.461h41.033c9.643,0,17.461,7.818,17.461,17.461v469.702
				C3010.445,2896.907,3002.628,2904.725,2992.984,2904.725z"/>
		</g>
		<g>
			<path style="fill:#787A75;" d="M3127.434,2904.725h-41.033c-9.643,0-17.461-7.818-17.461-17.461v-469.702
				c0-9.643,7.818-17.461,17.461-17.461h41.033c9.644,0,17.461,7.818,17.461,17.461v469.702
				C3144.895,2896.907,3137.078,2904.725,3127.434,2904.725z"/>
		</g>
		<g>
			<path style="fill:#787A75;" d="M2858.534,2904.725h-41.033c-9.644,0-17.461-7.818-17.461-17.461v-469.702
				c0-9.643,7.817-17.461,17.461-17.461h41.033c9.644,0,17.461,7.818,17.461,17.461v469.702
				C2875.996,2896.907,2868.178,2904.725,2858.534,2904.725z"/>
		</g>
		<g style="opacity:0.6;">
			<path style="fill:#FFFFFF;" d="M3008.559,2419.11v469.719c0,9.639-7.857,17.444-17.496,17.444h-41.016
				c-5.553,0-10.477-2.567-13.62-6.6c0.157,0.052,0.366,0.052,0.524,0.052h41.016c9.638,0,17.496-7.805,17.496-17.444v-469.719
				c0-4.086-1.414-7.857-3.824-10.844C3001.015,2401.98,3008.559,2409.681,3008.559,2419.11z"/>
		</g>
		<g style="opacity:0.6;">
			<path style="fill:#FFFFFF;" d="M3142.974,2419.11v469.719c0,9.639-7.805,17.444-17.444,17.444h-41.016
				c-5.553,0-10.477-2.567-13.672-6.6c0.209,0.052,0.367,0.052,0.576,0.052h41.016c9.639,0,17.444-7.805,17.444-17.444v-469.719
				c0-4.086-1.414-7.857-3.824-10.844C3135.431,2401.928,3142.974,2409.628,3142.974,2419.11z"/>
		</g>
		<g style="opacity:0.6;">
			<path style="fill:#FFFFFF;" d="M2874.091,2419.11v469.719c0,9.639-7.805,17.444-17.444,17.444h-41.068
				c-5.553,0-10.477-2.567-13.62-6.6c0.157,0.052,0.367,0.052,0.524,0.052h41.068c9.638,0,17.444-7.805,17.444-17.444v-469.719
				c0-4.086-1.415-7.857-3.824-10.844C2866.548,2401.928,2874.091,2409.628,2874.091,2419.11z"/>
		</g>
		<g>
			<path style="fill:#371A45;" d="M1072.113,3282.714h-35.359c-45.098,0-81.787-36.689-81.787-81.787v-28.394
				c0-8.286,6.716-15,15-15h168.936c8.284,0,15,6.714,15,15v28.394C1153.902,3246.025,1117.213,3282.714,1072.113,3282.714z
				 M984.966,3187.533v13.394c0,28.555,23.232,51.787,51.787,51.787h35.359c28.557,0,51.79-23.232,51.79-51.787v-13.394H984.966z"/>
		</g>
		<g>
			<path style="fill:#371A45;" d="M3013.126,3282.714h-35.359c-45.1,0-81.79-36.689-81.79-81.787v-28.394c0-8.286,6.716-15,15-15
				h168.936c8.284,0,15,6.714,15,15v28.394C3094.913,3246.025,3058.223,3282.714,3013.126,3282.714z M2925.977,3187.533v13.394
				c0,28.555,23.232,51.787,51.79,51.787h35.359c28.555,0,51.787-23.232,51.787-51.787v-13.394H2925.977z"/>
		</g>
		<g style="opacity:0.25;">
			<path style="fill:#371A45;" d="M1138.902,3172.536v28.392c0,36.878-29.911,66.788-66.789,66.788h-35.358
				c-7.281,0-14.301-1.152-20.848-3.3c34.154-28.863,38.816-63.855,34.363-91.88H1138.902z"/>
		</g>
		<g style="opacity:0.25;">
			<path style="fill:#371A45;" d="M3079.433,3172.536v28.392c0,36.878-29.911,66.788-66.789,66.788h-35.358
				c-7.281,0-14.301-1.152-20.848-3.3c34.154-28.863,38.816-63.855,34.363-91.88H3079.433z"/>
		</g>
		<g style="opacity:0.25;">
			<path style="fill:#371A45;" d="M683.121,3276.25c117.181-8.987,234.363-14.609,351.545-20.295
				c29.296-1.565,58.591-2.219,87.886-2.388l87.886,0.208l175.772,0.254l703.09,1.353l703.09,0.779l87.886,0.046
				c29.296-0.127,58.591-1.382,87.887-1.411c29.296,0.129,58.59,1.655,87.886,2.578l87.887,3.142
				c58.59,1.919,117.181,4.534,175.771,7.075c29.296,1.221,58.591,2.52,87.887,4.063l87.886,4.597l-87.886,4.597
				c-29.296,1.543-58.591,2.842-87.887,4.063c-58.59,2.542-117.181,5.156-175.771,7.075l-87.887,3.142
				c-29.296,0.923-58.59,2.449-87.886,2.578c-29.296-0.029-58.591-1.284-87.887-1.411l-87.886,0.046l-703.09,0.779l-703.09,1.353
				l-175.772,0.254l-87.886,0.208c-29.296-0.168-58.591-0.823-87.886-2.388C917.484,3290.859,800.302,3285.237,683.121,3276.25z"/>
		</g>
		<g>
			<g>
				<path style="fill:#FFD243;" d="M1015.384,2379.34l4.365,16.626l16.171,5.83c4.37,1.575,5.037,7.478,1.128,9.989l-14.463,9.29
					l-0.547,17.181c-0.148,4.643-5.556,7.101-9.151,4.159l-13.304-10.885l-16.509,4.789c-4.461,1.294-8.47-3.089-6.784-7.418
					l6.241-16.017l-9.656-14.221c-2.609-3.843,0.321-9.01,4.958-8.744l17.161,0.986l10.541-13.578
					C1008.385,2373.657,1014.205,2374.847,1015.384,2379.34z"/>
			</g>
			<g>
				<path style="fill:#FFA92C;" d="M1022.039,2438.256c-0.146,4.643-5.559,7.099-9.154,4.157l-13.3-10.88l-16.509,4.785
					c-4.461,1.295-8.469-3.087-6.787-7.416l1.936-4.972c1.055,2.437,3.791,4.045,6.731,3.195l16.51-4.785l13.3,10.88
					c2.363,1.934,5.517,1.537,7.443-0.29L1022.039,2438.256z"/>
			</g>
			<g style="opacity:0.6;">
				<path style="fill:#FFFFFF;" d="M977.836,2389.92l19.895,1.242l-2.968,3.821l-16.622-1.056l-0.781-1.147
					c-0.596-0.885-0.87-1.84-0.87-2.773C976.922,2389.924,977.371,2389.893,977.836,2389.92z"/>
			</g>
			<g style="opacity:0.6;">
				<path style="fill:#FFFFFF;" d="M1037.122,2402.403c-0.366,0.858-0.994,1.629-1.889,2.209l-2.416,1.556
					c-0.369-0.26-0.783-0.467-1.239-0.635l-16.172-5.827l-4.366-16.628c-0.842-3.21-4.059-4.733-6.866-3.999l1.36-1.752
					c2.855-3.667,8.674-2.477,9.854,2.015l4.367,16.622l16.164,5.832C1036.355,2401.954,1036.756,2402.158,1037.122,2402.403z"/>
			</g>
			<g>
				<path style="fill:#FFA92C;" d="M984.234,2415.032l-11.36-16.372c-2.099-3.093-0.61-7.046,2.477-8.315l11.846,17.091
					L984.234,2415.032z"/>
			</g>
			<g>
				<path style="fill:#FFA92C;" d="M1037.05,2411.782l-16.768,10.312l0.256-8.149l17.498-10.782
					C1040.376,2405.542,1040.195,2409.762,1037.05,2411.782z"/>
			</g>
			<g>
				<path style="fill:#000072;" d="M1016.427,2443.974c-1.331,0-2.644-0.454-3.723-1.333l-13.186-10.796l-16.362,4.751
					c-2.17,0.61-4.468-0.015-5.991-1.685c-1.526-1.67-1.963-4.014-1.143-6.113l6.187-15.879l-9.57-14.097
					c-1.269-1.865-1.365-4.248-0.251-6.211c1.116-1.973,3.23-3.101,5.464-2.983l17.012,0.977l10.447-13.452
					c1.389-1.792,3.628-2.588,5.835-2.163c2.214,0.454,3.945,2.095,4.519,4.277l4.326,16.479l16.03,5.781
					c2.124,0.767,3.604,2.637,3.857,4.878c0.254,2.246-0.771,4.399-2.671,5.625l-14.336,9.204l-0.542,17.031
					c-0.073,2.256-1.396,4.238-3.452,5.176C1018.087,2443.798,1017.254,2443.974,1016.427,2443.974z M999.649,2431.21l0.117,0.093
					l13.303,10.889c1.602,1.313,3.684,1.577,5.569,0.728c1.882-0.859,3.047-2.603,3.113-4.673l0.552-17.334l0.127-0.083
					l14.463-9.287c1.743-1.118,2.644-3.013,2.412-5.073c-0.234-2.056-1.536-3.701-3.481-4.404l-16.313-5.879l-0.039-0.146
					l-4.365-16.626c-0.525-2.002-2.051-3.442-4.077-3.857c-2.041-0.425-3.997,0.313-5.266,1.948L995.13,2391.2l-0.151-0.01
					l-17.163-0.986c-2.046-0.078-3.926,0.913-4.932,2.69c-1.018,1.797-0.935,3.896,0.227,5.605l9.741,14.351l-0.054,0.137
					l-6.24,16.016c-0.752,1.929-0.366,3.989,1.028,5.518c1.394,1.528,3.418,2.1,5.408,1.519L999.649,2431.21z"/>
			</g>
			<g>
				<path style="fill:#000072;" d="M1016.422,2446.254c-1.843,0-3.662-0.635-5.156-1.855l-12.263-10.034l-15.215,4.414
					c-3.013,0.864-6.186-0.029-8.303-2.334c-2.112-2.31-2.717-5.557-1.582-8.477l5.752-14.761l-8.899-13.105
					c-1.758-2.588-1.892-5.889-0.349-8.613c1.543-2.725,4.358-4.292,7.573-4.131l15.82,0.908l9.712-12.51
					c1.919-2.476,5.022-3.618,8.086-2.993c3.069,0.625,5.469,2.9,6.265,5.928l4.023,15.322l14.905,5.371
					c2.944,1.064,4.993,3.657,5.344,6.768c0.351,3.11-1.065,6.094-3.699,7.788l-13.333,8.56l-0.503,15.84
					c-0.1,3.13-1.934,5.874-4.783,7.173C1018.724,2446.01,1017.569,2446.254,1016.422,2446.254z M999.583,2428.964
					c0.583,0,1.16,0.2,1.624,0.581l13.303,10.889c0.911,0.747,2.107,0.894,3.186,0.415c1.079-0.493,1.746-1.489,1.782-2.676
					l0.547-17.183c0.027-0.84,0.466-1.616,1.177-2.07l14.463-9.287c0.996-0.645,1.514-1.729,1.379-2.905
					c-0.134-1.177-0.879-2.119-1.992-2.524l-16.172-5.825c-0.794-0.288-1.394-0.947-1.609-1.763l-4.365-16.626l0,0
					c-0.3-1.143-1.172-1.968-2.334-2.207c-1.165-0.234-2.285,0.181-3.013,1.118l-10.54,13.574c-0.52,0.664-1.333,0.996-2.17,0.986
					l-17.163-0.986c-1.216-0.137-2.239,0.508-2.822,1.538s-0.535,2.231,0.129,3.208l9.656,14.224
					c0.474,0.698,0.574,1.587,0.269,2.368l-6.24,16.016c-0.432,1.104-0.21,2.285,0.588,3.159c0.796,0.869,1.946,1.211,3.096,0.869
					l16.509-4.79C999.105,2428.998,999.344,2428.964,999.583,2428.964z"/>
			</g>
		</g>
		<g>
			<g>
				<path style="fill:#FFD243;" d="M1120.495,2151.699l14.175,9.724l16.046-6.164c4.336-1.666,8.701,2.364,7.385,6.819
					l-4.868,16.486l10.821,13.356c2.924,3.609,0.441,9.005-4.203,9.131l-17.183,0.465l-9.358,14.419
					c-2.529,3.897-8.428,3.202-9.983-1.176l-5.752-16.198l-16.605-4.445c-4.487-1.201-5.65-7.026-1.967-9.858l13.628-10.476
					l-0.904-17.166C1111.483,2151.977,1116.664,2149.072,1120.495,2151.699z"/>
			</g>
			<g>
				<path style="fill:#FFA92C;" d="M1164.056,2191.921c2.926,3.608,0.437,9.006-4.207,9.131l-17.177,0.466l-9.361,14.416
					c-2.528,3.897-8.427,3.203-9.985-1.172l-1.786-5.028c2.391,1.153,5.514,0.581,7.182-1.984l9.361-14.416l17.177-0.466
					c3.053-0.082,5.179-2.445,5.442-5.087L1164.056,2191.921z"/>
			</g>
			<g style="opacity:0.6;">
				<path style="fill:#FFFFFF;" d="M1099.006,2184.258l15.864-12.07l0.253,4.831l-13.267,10.071l-1.341-0.358
					c-1.029-0.28-1.862-0.823-2.472-1.529C1098.317,2184.858,1098.637,2184.541,1099.006,2184.258z"/>
			</g>
			<g style="opacity:0.6;">
				<path style="fill:#FFFFFF;" d="M1152.022,2154.933c0.284,0.889,0.313,1.882,0.016,2.906l-0.81,2.757
					c-0.449,0.045-0.898,0.159-1.353,0.33l-16.046,6.167l-14.177-9.725c-2.737-1.878-6.166-0.926-7.81,1.464l-0.117-2.215
					c-0.238-4.641,4.943-7.546,8.772-4.919l14.173,9.719l16.043-6.158C1151.148,2155.094,1151.585,2154.987,1152.022,2154.933z"/>
			</g>
			<g>
				<path style="fill:#FFA92C;" d="M1120.268,2199.072l-19.301-4.957c-3.611-0.967-5.069-4.932-3.564-7.911l20.139,5.184
					L1120.268,2199.072z"/>
			</g>
			<g>
				<path style="fill:#FFA92C;" d="M1158.101,2162.076l-5.943,18.767l-5.135-6.333l6.187-19.6
					C1156.536,2155.179,1159.159,2158.49,1158.101,2162.076z"/>
			</g>
			<g>
				<path style="fill:#000072;" d="M1128.626,2218.779c-0.234,0-0.469-0.015-0.706-0.044c-2.244-0.264-4.109-1.748-4.863-3.877
					l-5.703-16.06l-16.458-4.404c-2.183-0.586-3.813-2.324-4.255-4.541c-0.442-2.212,0.395-4.448,2.185-5.825l13.511-10.381
					l-0.898-17.017c-0.117-2.256,1.033-4.346,3.003-5.449c1.975-1.104,4.353-0.991,6.216,0.278l14.05,9.644l15.906-6.113
					c2.104-0.811,4.448-0.361,6.111,1.172c1.658,1.533,2.293,3.833,1.653,6.001l-4.827,16.338l10.727,13.237
					c1.423,1.758,1.721,4.126,0.774,6.177c-0.945,2.051-2.935,3.364-5.193,3.423l-17.031,0.464l-9.275,14.292
					C1132.452,2217.787,1130.609,2218.779,1128.626,2218.779z M1117.335,2150.986c-0.889,0-1.78,0.229-2.612,0.698
					c-1.804,1.011-2.817,2.852-2.708,4.917l0.913,17.319l-0.12,0.093l-13.63,10.474c-1.641,1.26-2.378,3.228-1.973,5.254
					c0.405,2.031,1.841,3.564,3.838,4.097l16.75,4.482l0.051,0.142l5.754,16.201c0.681,1.924,2.363,3.262,4.39,3.501
					c2.036,0.273,3.955-0.645,5.08-2.383l9.441-14.546l0.151-0.005l17.183-0.469c2.068-0.054,3.818-1.206,4.685-3.086
					s0.608-3.965-0.698-5.576l-10.916-13.472l0.042-0.146l4.868-16.484c0.586-1.982,0.029-4.009-1.492-5.41
					c-1.521-1.406-3.584-1.812-5.515-1.06l-16.189,6.221l-0.125-0.083l-14.175-9.727
					C1119.41,2151.303,1118.375,2150.986,1117.335,2150.986z"/>
			</g>
			<g>
				<path style="fill:#000072;" d="M1128.631,2221.054c-0.322,0-0.649-0.02-0.977-0.059c-3.11-0.366-5.693-2.427-6.741-5.381
					l-5.303-14.932l-15.303-4.092c-3.025-0.811-5.286-3.223-5.898-6.289c-0.613-3.071,0.549-6.167,3.03-8.076l12.563-9.653
					l-0.835-15.82c-0.164-3.13,1.431-6.021,4.16-7.554c2.729-1.523,6.035-1.387,8.613,0.386h0.002l13.064,8.965l14.79-5.684
					c2.913-1.113,6.162-0.503,8.467,1.626c2.302,2.124,3.181,5.308,2.292,8.315l-4.485,15.19l9.973,12.31
					c1.973,2.437,2.383,5.718,1.072,8.56c-1.311,2.842-4.07,4.663-7.197,4.741l-15.835,0.435l-8.625,13.291
					C1133.934,2219.682,1131.38,2221.054,1128.631,2221.054z M1117.33,2153.266c-0.508,0-1.018,0.132-1.494,0.4
					c-1.033,0.581-1.614,1.631-1.55,2.813l0.906,17.168c0.044,0.845-0.33,1.655-0.998,2.168l-13.63,10.474
					c-0.938,0.723-1.36,1.846-1.128,3.008s1.055,2.041,2.197,2.344l16.604,4.443c0.815,0.22,1.47,0.825,1.753,1.616l5.754,16.201
					c0.396,1.118,1.335,1.865,2.512,2.007c1.177,0.132,2.263-0.371,2.908-1.367l9.358-14.419c0.459-0.703,1.235-1.143,2.078-1.162
					l17.183-0.469c1.187-0.034,2.188-0.693,2.683-1.768c0.498-1.079,0.347-2.271-0.4-3.193l-10.82-13.354
					c-0.532-0.654-0.706-1.528-0.466-2.339l4.868-16.484c0.335-1.133,0.015-2.295-0.854-3.096c-0.871-0.806-2.048-1.035-3.157-0.605
					l-16.047,6.167c-0.781,0.293-1.67,0.195-2.368-0.278l-14.175-9.727C1118.516,2153.451,1117.926,2153.266,1117.33,2153.266z"/>
			</g>
		</g>
		<g>
			<g>
				<path style="fill:#FFD243;" d="M1236.644,2515.594l14.175,9.724l16.046-6.165c4.336-1.666,8.701,2.364,7.385,6.819
					l-4.868,16.486l10.821,13.356c2.924,3.61,0.441,9.006-4.203,9.131l-17.183,0.465l-9.358,14.419
					c-2.529,3.897-8.428,3.202-9.983-1.176l-5.752-16.198l-16.605-4.445c-4.488-1.201-5.65-7.027-1.967-9.858l13.628-10.476
					l-0.904-17.166C1227.632,2515.872,1232.813,2512.966,1236.644,2515.594z"/>
			</g>
			<g>
				<path style="fill:#FFA92C;" d="M1280.205,2555.815c2.926,3.608,0.437,9.006-4.207,9.131l-17.177,0.466l-9.361,14.416
					c-2.528,3.897-8.426,3.203-9.985-1.172l-1.786-5.028c2.391,1.153,5.514,0.581,7.182-1.984l9.361-14.416l17.177-0.466
					c3.053-0.082,5.179-2.445,5.442-5.087L1280.205,2555.815z"/>
			</g>
			<g style="opacity:0.6;">
				<path style="fill:#FFFFFF;" d="M1215.155,2548.153l15.864-12.07l0.253,4.832l-13.267,10.071l-1.341-0.358
					c-1.029-0.28-1.862-0.823-2.472-1.529C1214.466,2548.753,1214.786,2548.436,1215.155,2548.153z"/>
			</g>
			<g style="opacity:0.6;">
				<path style="fill:#FFFFFF;" d="M1268.171,2518.828c0.284,0.889,0.313,1.882,0.016,2.906l-0.81,2.757
					c-0.449,0.045-0.898,0.159-1.353,0.33l-16.046,6.167l-14.177-9.725c-2.736-1.878-6.166-0.927-7.81,1.464l-0.117-2.214
					c-0.238-4.641,4.942-7.546,8.772-4.919l14.173,9.719l16.043-6.158C1267.297,2518.989,1267.734,2518.881,1268.171,2518.828z"/>
			</g>
			<g>
				<path style="fill:#FFA92C;" d="M1236.417,2562.967l-19.301-4.957c-3.611-0.967-5.069-4.932-3.564-7.91l20.139,5.184
					L1236.417,2562.967z"/>
			</g>
			<g>
				<path style="fill:#FFA92C;" d="M1274.25,2525.97l-5.943,18.767l-5.135-6.333l6.187-19.6
					C1272.686,2519.073,1275.308,2522.385,1274.25,2525.97z"/>
			</g>
			<g>
				<path style="fill:#000072;" d="M1244.771,2582.67c-0.234,0-0.469-0.015-0.703-0.039c-2.244-0.264-4.107-1.753-4.863-3.877
					l-5.701-16.06l-16.458-4.404c-2.183-0.586-3.813-2.324-4.255-4.541c-0.442-2.212,0.395-4.448,2.185-5.825l13.508-10.386
					l-0.896-17.012c-0.117-2.256,1.033-4.346,3.003-5.449c1.973-1.104,4.353-0.991,6.216,0.278l14.05,9.639l15.906-6.108
					c2.107-0.811,4.453-0.366,6.111,1.172c1.66,1.533,2.293,3.828,1.653,5.996l-4.827,16.343l10.725,13.237
					c1.423,1.753,1.721,4.121,0.776,6.172c-0.945,2.051-2.935,3.364-5.193,3.428l-17.034,0.459l-9.275,14.292
					C1248.599,2581.679,1246.754,2582.67,1244.771,2582.67z M1233.485,2514.882c-0.889,0-1.78,0.229-2.612,0.698
					c-1.804,1.011-2.817,2.852-2.708,4.917l0.911,17.314l-0.12,0.093l-13.628,10.479c-1.641,1.26-2.378,3.228-1.973,5.254
					c0.405,2.031,1.841,3.564,3.838,4.097l16.75,4.482l0.051,0.142l5.752,16.201c0.693,1.948,2.334,3.257,4.387,3.501
					c2.068,0.225,3.958-0.654,5.083-2.388l9.441-14.546l0.151-0.005l17.185-0.464c2.068-0.054,3.821-1.211,4.685-3.091
					s0.603-3.965-0.698-5.571l-10.916-13.472l0.042-0.146l4.868-16.489c0.586-1.982,0.029-4.004-1.492-5.405
					c-1.494-1.382-3.604-1.787-5.515-1.06l-16.189,6.216l-0.125-0.083l-14.175-9.722
					C1235.56,2515.199,1234.525,2514.882,1233.485,2514.882z"/>
			</g>
			<g>
				<path style="fill:#000072;" d="M1244.776,2584.946c-0.322,0-0.647-0.02-0.974-0.059c-3.11-0.366-5.691-2.422-6.741-5.371
					l-5.3-14.937l-15.303-4.092c-3.025-0.811-5.286-3.223-5.898-6.289c-0.613-3.071,0.549-6.167,3.03-8.076l12.561-9.658
					l-0.833-15.815c-0.164-3.13,1.431-6.021,4.16-7.554c2.732-1.523,6.035-1.382,8.613,0.386l0,0l13.066,8.96l14.79-5.679
					c2.922-1.118,6.169-0.503,8.469,1.626c2.3,2.124,3.176,5.308,2.29,8.311l-4.487,15.195l9.973,12.31
					c1.973,2.432,2.383,5.708,1.074,8.55c-1.309,2.847-4.065,4.668-7.195,4.751l-15.84,0.43l-8.625,13.291
					C1250.081,2583.573,1247.525,2584.946,1244.776,2584.946z M1233.48,2517.162c-0.508,0-1.018,0.132-1.494,0.4
					c-1.033,0.581-1.614,1.631-1.55,2.813l0.903,17.163c0.044,0.845-0.33,1.655-0.996,2.168l-13.628,10.479
					c-0.94,0.723-1.362,1.846-1.13,3.008c0.232,1.162,1.055,2.041,2.197,2.344l16.604,4.443c0.815,0.22,1.47,0.825,1.753,1.616
					l5.752,16.201c0.396,1.118,1.333,1.865,2.51,2.002c1.169,0.137,2.263-0.371,2.91-1.367l9.358-14.419
					c0.459-0.703,1.235-1.143,2.08-1.162l17.185-0.464c1.182-0.034,2.185-0.698,2.681-1.772s0.344-2.266-0.4-3.188l-10.82-13.354
					c-0.532-0.654-0.706-1.528-0.466-2.339l4.868-16.489c0.335-1.133,0.015-2.29-0.854-3.091c-0.869-0.801-2.046-1.035-3.157-0.605
					l-16.047,6.162c-0.788,0.298-1.672,0.195-2.366-0.278l-14.175-9.722C1234.669,2517.348,1234.075,2517.162,1233.48,2517.162z"/>
			</g>
		</g>
		<g>
			<g>
				<path style="fill:#FFD243;" d="M2455.535,2261.069l14.175,9.724l16.046-6.165c4.336-1.666,8.701,2.364,7.385,6.819
					l-4.868,16.486l10.822,13.356c2.924,3.609,0.44,9.005-4.203,9.131l-17.183,0.465l-9.358,14.419
					c-2.529,3.897-8.428,3.202-9.983-1.176l-5.752-16.198l-16.605-4.445c-4.488-1.201-5.65-7.026-1.967-9.858l13.628-10.476
					l-0.904-17.166C2446.523,2261.347,2451.704,2258.441,2455.535,2261.069z"/>
			</g>
			<g>
				<path style="fill:#FFA92C;" d="M2499.096,2301.291c2.926,3.608,0.437,9.006-4.207,9.131l-17.177,0.466l-9.361,14.416
					c-2.528,3.897-8.426,3.203-9.985-1.172l-1.786-5.028c2.391,1.153,5.513,0.581,7.181-1.984l9.361-14.416l17.177-0.466
					c3.053-0.082,5.179-2.445,5.442-5.087L2499.096,2301.291z"/>
			</g>
			<g style="opacity:0.6;">
				<path style="fill:#FFFFFF;" d="M2434.046,2293.628l15.864-12.07l0.253,4.832l-13.267,10.071l-1.341-0.358
					c-1.029-0.28-1.862-0.823-2.472-1.529C2433.357,2294.228,2433.677,2293.911,2434.046,2293.628z"/>
			</g>
			<g style="opacity:0.6;">
				<path style="fill:#FFFFFF;" d="M2487.062,2264.303c0.284,0.889,0.313,1.882,0.015,2.906l-0.81,2.757
					c-0.449,0.045-0.898,0.159-1.353,0.33l-16.046,6.167l-14.177-9.725c-2.736-1.878-6.166-0.926-7.81,1.464l-0.117-2.215
					c-0.238-4.641,4.942-7.546,8.772-4.919l14.173,9.719l16.043-6.158C2486.188,2264.464,2486.625,2264.356,2487.062,2264.303z"/>
			</g>
			<g>
				<path style="fill:#FFA92C;" d="M2455.308,2308.442l-19.301-4.957c-3.611-0.967-5.069-4.932-3.564-7.91l20.139,5.184
					L2455.308,2308.442z"/>
			</g>
			<g>
				<path style="fill:#FFA92C;" d="M2493.141,2271.446l-5.943,18.767l-5.135-6.333l6.187-19.6
					C2491.576,2264.549,2494.199,2267.86,2493.141,2271.446z"/>
			</g>
			<g>
				<path style="fill:#000072;" d="M2463.665,2328.149c-0.232,0-0.466-0.015-0.703-0.044c-2.244-0.264-4.109-1.748-4.866-3.877
					l-5.701-16.06l-16.46-4.404c-2.183-0.586-3.813-2.324-4.255-4.541c-0.442-2.212,0.396-4.448,2.188-5.825l13.508-10.381
					L2446.48,2266c-0.12-2.256,1.03-4.341,3-5.449c1.97-1.104,4.353-0.996,6.218,0.278l14.05,9.644l15.903-6.113
					c2.104-0.811,4.451-0.361,6.111,1.172s2.292,3.833,1.653,6.001l-4.824,16.338l10.725,13.237
					c1.426,1.758,1.721,4.126,0.774,6.177c-0.945,2.051-2.935,3.364-5.193,3.423l-17.031,0.464l-9.275,14.292
					C2467.491,2327.157,2465.648,2328.149,2463.665,2328.149z M2452.369,2260.365c-0.894,0-1.79,0.229-2.607,0.688
					c-1.804,1.011-2.815,2.852-2.705,4.917l0.911,17.319l-0.12,0.093l-13.628,10.474c-1.643,1.26-2.38,3.228-1.975,5.254
					c0.405,2.031,1.841,3.564,3.838,4.097l16.753,4.482l0.051,0.142l5.752,16.201c0.684,1.924,2.366,3.267,4.392,3.501
					c2.056,0.269,3.953-0.649,5.078-2.383l9.441-14.546l0.151-0.005l17.183-0.469c2.068-0.054,3.821-1.206,4.685-3.086
					c0.854-1.851,0.588-3.989-0.698-5.576l-10.913-13.472l0.042-0.146l4.866-16.484c0.586-1.982,0.029-4.009-1.492-5.41
					c-1.521-1.406-3.586-1.807-5.515-1.06l-16.187,6.221l-0.125-0.083l-14.175-9.727
					C2454.464,2260.683,2453.419,2260.365,2452.369,2260.365z"/>
			</g>
			<g>
				<path style="fill:#000072;" d="M2463.67,2330.424c-0.322,0-0.647-0.02-0.974-0.059c-3.11-0.366-5.693-2.427-6.743-5.376
					l-5.3-14.937l-15.305-4.092c-3.025-0.811-5.286-3.223-5.898-6.294c-0.61-3.066,0.549-6.162,3.035-8.071l12.559-9.653
					l-0.833-15.82c-0.166-3.125,1.428-6.021,4.158-7.554c2.732-1.533,6.038-1.387,8.616,0.386h0.002l13.064,8.965l14.788-5.684
					c2.92-1.113,6.169-0.498,8.469,1.626s3.179,5.308,2.29,8.315l-4.485,15.19l9.973,12.31c1.973,2.437,2.383,5.718,1.072,8.56
					c-1.311,2.847-4.067,4.663-7.197,4.741l-15.835,0.435l-8.625,13.291C2468.973,2329.052,2466.419,2330.424,2463.67,2330.424z
					 M2452.371,2262.636c-0.508,0-1.021,0.132-1.497,0.4c-1.033,0.581-1.611,1.631-1.548,2.813l0.903,17.168
					c0.044,0.845-0.33,1.655-0.999,2.168l-13.628,10.474c-0.938,0.723-1.362,1.846-1.13,3.008s1.055,2.041,2.197,2.344l16.606,4.443
					c0.815,0.22,1.47,0.825,1.753,1.616l5.752,16.201c0.396,1.118,1.335,1.865,2.512,2.007c1.184,0.122,2.263-0.371,2.908-1.367
					l9.358-14.419c0.459-0.703,1.235-1.143,2.078-1.162l17.183-0.469c1.187-0.034,2.19-0.693,2.683-1.768
					c0.498-1.074,0.347-2.271-0.4-3.193l-10.818-13.354c-0.532-0.654-0.706-1.528-0.466-2.339l4.866-16.484
					c0.334-1.133,0.017-2.295-0.854-3.096c-0.869-0.806-2.041-1.035-3.157-0.605l-16.045,6.167c-0.784,0.298-1.67,0.19-2.368-0.278
					l-14.175-9.727C2453.558,2262.822,2452.967,2262.636,2452.371,2262.636z"/>
			</g>
		</g>
		<g>
			<g>
				<path style="fill:#FFD243;" d="M2239.868,2827.572l3.353,16.86l15.789,6.796c4.267,1.837,4.575,7.769,0.522,10.038
					l-14.998,8.398l-1.584,17.116c-0.428,4.625-5.975,6.752-9.386,3.599l-12.622-11.669l-16.768,3.782
					c-4.531,1.022-8.268-3.596-6.323-7.814l7.198-15.61l-8.779-14.779c-2.373-3.994,0.865-8.975,5.478-8.428l17.07,2.021
					l11.343-12.916C2233.224,2821.476,2238.962,2823.015,2239.868,2827.572z"/>
			</g>
			<g>
				<path style="fill:#FFA92C;" d="M2242.949,2886.782c-0.426,4.626-5.978,6.75-9.388,3.596l-12.618-11.664l-16.769,3.778
					c-4.531,1.023-8.267-3.594-6.327-7.813l2.233-4.846c0.906,2.496,3.54,4.267,6.525,3.596l16.768-3.778l12.618,11.664
					c2.242,2.073,5.414,1.867,7.447,0.16L2242.949,2886.782z"/>
			</g>
			<g style="opacity:0.6;">
				<path style="fill:#FFFFFF;" d="M2201.748,2835.862l19.784,2.442l-3.194,3.635l-16.528-2.059l-0.71-1.192
					c-0.541-0.919-0.757-1.889-0.701-2.821C2200.836,2835.811,2201.286,2835.807,2201.748,2835.862z"/>
			</g>
			<g style="opacity:0.6;">
				<path style="fill:#FFFFFF;" d="M2260.171,2851.906c-0.417,0.834-1.091,1.566-2.019,2.091l-2.506,1.407
					c-0.353-0.281-0.754-0.513-1.199-0.708l-15.79-6.794l-3.353-16.862c-0.647-3.255-3.766-4.97-6.612-4.407l1.463-1.667
					c3.071-3.488,8.808-1.948,9.714,2.607l3.354,16.855l15.782,6.799C2259.434,2851.411,2259.821,2851.64,2260.171,2851.906z"/>
			</g>
			<g>
				<path style="fill:#FFA92C;" d="M2206.617,2861.315l-10.35-17.029c-1.908-3.214-0.183-7.07,2.975-8.15l10.792,17.776
					L2206.617,2861.315z"/>
			</g>
			<g>
				<path style="fill:#FFA92C;" d="M2259.533,2861.264l-17.361,9.279l0.748-8.119l18.118-9.705
					C2263.23,2855.235,2262.794,2859.437,2259.533,2861.264z"/>
			</g>
			<g>
				<path style="fill:#000072;" d="M2237.354,2892.162c-1.453,0-2.874-0.542-3.987-1.572l-12.51-11.567l-16.621,3.75
					c-2.202,0.518-4.456-0.288-5.879-2.041c-1.421-1.758-1.714-4.126-0.769-6.177l7.134-15.474l-8.701-14.644
					c-1.155-1.943-1.106-4.326,0.122-6.221c1.23-1.89,3.364-2.915,5.637-2.642l16.919,2.002l11.245-12.803
					c1.487-1.694,3.772-2.383,5.95-1.802c2.183,0.586,3.813,2.324,4.253,4.546l3.325,16.709l15.652,6.733
					c2.075,0.894,3.438,2.856,3.555,5.112c0.115,2.256-1.038,4.341-3.008,5.439l-14.866,8.325l-1.572,16.968
					c-0.208,2.251-1.648,4.15-3.757,4.961C2238.782,2892.031,2238.065,2892.162,2237.354,2892.162z M2221.024,2878.398l0.112,0.103
					l12.622,11.67c1.523,1.406,3.579,1.792,5.513,1.06c1.934-0.742,3.201-2.412,3.391-4.473l1.597-17.271l0.132-0.073l15-8.398
					c1.807-1.011,2.82-2.847,2.712-4.912c-0.103-2.036-1.333-3.804-3.208-4.614l-15.925-6.851l-0.029-0.151l-3.357-16.86
					c-0.396-1.997-1.868-3.569-3.838-4.097c-2.009-0.552-4.006,0.073-5.369,1.626l-11.443,13.027l-0.151-0.02l-17.07-2.021
					c-2.056-0.21-3.955,0.654-5.085,2.393c-1.125,1.733-1.169,3.833-0.112,5.61l8.857,14.907l-0.063,0.137l-7.197,15.61
					c-0.867,1.88-0.608,3.96,0.696,5.571s3.286,2.29,5.303,1.846L2221.024,2878.398z"/>
			</g>
			<g>
				<path style="fill:#000072;" d="M2237.347,2894.438c-2.012,0-3.979-0.752-5.522-2.178l-11.633-10.757l-15.454,3.491
					c-3.057,0.688-6.177-0.4-8.147-2.832c-1.968-2.437-2.378-5.713-1.067-8.56l6.633-14.385l-8.091-13.618
					c-1.599-2.69-1.533-5.991,0.171-8.618s4.7-4.028,7.808-3.667l15.737,1.865l10.454-11.904c2.063-2.354,5.229-3.301,8.247-2.5
					c3.027,0.811,5.286,3.223,5.896,6.299l3.091,15.537l14.553,6.26c2.878,1.24,4.766,3.955,4.927,7.085
					c0.161,3.125-1.436,6.016-4.167,7.544l-13.823,7.739l-1.46,15.776c-0.288,3.12-2.285,5.752-5.208,6.875
					C2239.329,2894.257,2238.333,2894.438,2237.347,2894.438z M2220.941,2876.147c0.637,0,1.26,0.239,1.738,0.684l12.622,11.67
					c0.869,0.801,2.051,1.025,3.154,0.605c1.106-0.425,1.833-1.382,1.941-2.559l1.584-17.119c0.078-0.84,0.564-1.587,1.299-2.002
					l15-8.398c1.035-0.576,1.614-1.626,1.553-2.808c-0.061-1.187-0.747-2.173-1.838-2.642l-15.786-6.792
					c-0.774-0.332-1.335-1.025-1.499-1.855l-3.354-16.86l0,0c-0.232-1.162-1.052-2.041-2.197-2.344s-2.29,0.044-3.071,0.928
					l-11.345,12.915c-0.554,0.635-1.384,0.947-2.224,0.854l-17.07-2.021c-1.191-0.142-2.268,0.371-2.913,1.367
					s-0.669,2.197-0.063,3.213l8.779,14.775c0.43,0.723,0.476,1.616,0.125,2.383l-7.197,15.61c-0.496,1.074-0.347,2.266,0.398,3.188
					c0.745,0.918,1.89,1.323,3.035,1.055l16.768-3.784C2220.565,2876.171,2220.753,2876.147,2220.941,2876.147z"/>
			</g>
		</g>
		<g>
			<g>
				<path style="fill:#FFD243;" d="M999.606,2686.673l2.68,16.979l15.507,7.418c4.191,2.005,4.264,7.944,0.123,10.051l-15.32,7.796
					l-2.263,17.04c-0.612,4.605-6.238,6.51-9.521,3.223l-12.149-12.161l-16.905,3.113c-4.569,0.841-8.119-3.921-6.008-8.059
					l7.812-15.312l-8.185-15.116c-2.212-4.085,1.22-8.933,5.808-8.204l16.977,2.698l11.847-12.456
					C993.21,2680.318,998.881,2682.085,999.606,2686.673z"/>
			</g>
			<g>
				<path style="fill:#FFA92C;" d="M1000.333,2745.959c-0.609,4.605-6.241,6.507-9.524,3.22l-12.145-12.156l-16.905,3.109
					c-4.568,0.842-8.118-3.919-6.011-8.058l2.424-4.753c0.806,2.53,3.368,4.404,6.378,3.852l16.905-3.109l12.145,12.156
					c2.158,2.161,5.335,2.081,7.435,0.456L1000.333,2745.959z"/>
			</g>
			<g style="opacity:0.6;">
				<path style="fill:#FFFFFF;" d="M961.187,2693.444l19.671,3.226l-3.335,3.505l-16.433-2.714l-0.662-1.219
					c-0.504-0.94-0.682-1.918-0.588-2.847C960.278,2693.356,960.727,2693.37,961.187,2693.444z"/>
			</g>
			<g style="opacity:0.6;">
				<path style="fill:#FFFFFF;" d="M1018.927,2711.795c-0.45,0.817-1.152,1.521-2.101,2.009l-2.56,1.307
					c-0.341-0.295-0.733-0.543-1.17-0.756l-15.508-7.416l-2.68-16.982c-0.517-3.278-3.565-5.115-6.432-4.666l1.528-1.607
					c3.207-3.363,8.878-1.597,9.603,2.99l2.682,16.975l15.5,7.42C1018.209,2711.271,1018.588,2711.515,1018.927,2711.795z"/>
			</g>
			<g>
				<path style="fill:#FFA92C;" d="M965.041,2719.07l-9.665-17.426c-1.779-3.287,0.098-7.072,3.296-8.026l10.077,18.191
					L965.041,2719.07z"/>
			</g>
			<g>
				<path style="fill:#FFA92C;" d="M1017.917,2721.12l-17.716,8.583l1.07-8.083l18.489-8.978
					C1021.851,2715.243,1021.248,2719.424,1017.917,2721.12z"/>
			</g>
			<g>
				<path style="fill:#000072;" d="M994.761,2751.117c-1.533,0-3.025-0.605-4.153-1.733l-12.043-12.056l-16.755,3.086
					c-2.219,0.42-4.439-0.459-5.791-2.271c-1.35-1.812-1.553-4.189-0.525-6.201l7.744-15.176l-8.115-14.985
					c-1.074-1.982-0.933-4.36,0.373-6.206c1.306-1.851,3.528-2.764,5.732-2.417l16.829,2.676l11.743-12.349
					c1.55-1.636,3.855-2.236,6.018-1.567c2.158,0.674,3.718,2.476,4.07,4.712l2.659,16.826l15.371,7.354
					c2.036,0.977,3.32,2.983,3.347,5.244c0.029,2.261-1.206,4.297-3.22,5.322l-15.183,7.729l-2.244,16.89
					c-0.298,2.241-1.814,4.082-3.958,4.805C996.036,2751.015,995.396,2751.117,994.761,2751.117z M978.76,2736.708l0.105,0.107
					l12.148,12.158c1.467,1.47,3.501,1.948,5.464,1.284c1.934-0.654,3.301-2.314,3.569-4.341l2.283-17.183l0.137-0.068l15.32-7.798
					c1.843-0.942,2.93-2.739,2.905-4.81c-0.027-2.065-1.155-3.838-3.022-4.731l-15.645-7.48l-0.022-0.151l-2.681-16.978
					c-0.32-2.017-1.726-3.643-3.674-4.248c-1.968-0.62-4.002-0.083-5.432,1.416l-11.948,12.563l-0.149-0.024l-16.98-2.7
					c-2.053-0.313-3.98,0.493-5.173,2.183c-1.196,1.689-1.321,3.784-0.334,5.601l8.257,15.249l-0.068,0.137l-7.813,15.313
					c-0.928,1.816-0.747,3.96,0.474,5.591c1.238,1.66,3.186,2.422,5.227,2.051L978.76,2736.708z"/>
			</g>
			<g>
				<path style="fill:#000072;" d="M994.757,2753.393c-2.126,0-4.194-0.835-5.759-2.402l-11.194-11.206l-15.581,2.866
					c-3.093,0.576-6.157-0.635-8.027-3.149c-1.872-2.51-2.151-5.801-0.725-8.594l7.2-14.111l-7.546-13.931
					c-1.489-2.754-1.292-6.05,0.515-8.604c1.809-2.554,4.861-3.828,7.947-3.35l15.649,2.49l10.918-11.484
					c2.153-2.271,5.349-3.11,8.34-2.168c2.993,0.928,5.154,3.428,5.642,6.523l0,0l2.471,15.649l14.294,6.836
					c2.825,1.353,4.602,4.136,4.641,7.266c0.037,3.13-1.672,5.957-4.463,7.378l-14.121,7.188l-2.085,15.703
					c-0.413,3.105-2.515,5.659-5.481,6.665C996.524,2753.251,995.633,2753.393,994.757,2753.393z M978.663,2734.457
					c0.674,0,1.328,0.269,1.812,0.752l12.148,12.158c0.84,0.84,2.004,1.118,3.127,0.737c1.123-0.381,1.887-1.309,2.044-2.485
					l2.263-17.036c0.11-0.835,0.625-1.563,1.377-1.948l15.32-7.798c1.055-0.537,1.677-1.563,1.663-2.749
					c-0.015-1.187-0.662-2.197-1.729-2.71l-15.508-7.417c-0.759-0.361-1.294-1.079-1.423-1.909l-2.681-16.978
					c-0.186-1.172-0.972-2.08-2.105-2.432c-1.135-0.352-2.292-0.044-3.105,0.806l-11.848,12.461
					c-0.576,0.615-1.426,0.889-2.258,0.762l-16.978-2.7c-1.174-0.171-2.278,0.278-2.961,1.25c-0.684,0.967-0.754,2.163-0.19,3.203
					l8.186,15.117c0.4,0.742,0.413,1.636,0.029,2.383l-7.813,15.313c-0.539,1.06-0.439,2.256,0.269,3.203s1.816,1.396,2.991,1.172
					l16.907-3.11C978.353,2734.472,978.509,2734.457,978.663,2734.457z"/>
			</g>
		</g>
		<g>
			
				<ellipse transform="matrix(0.7071 -0.7071 0.7071 0.7071 -1335.9467 1543.7582)" style="fill:#FF8D06;" cx="1195.508" cy="2384.509" rx="15.315" ry="15.315"/>
		</g>
		<g>
			
				<ellipse transform="matrix(0.2298 -0.9732 0.9732 0.2298 -1309.6371 2953.01)" style="fill:#FFFFFF;" cx="1210.823" cy="2303.903" rx="7.531" ry="7.531"/>
		</g>
		<g>
			<circle style="fill:#FF8D06;" cx="976.49" cy="2262.66" r="11.344"/>
		</g>
		<g>
			<path style="fill:#FFFFFF;" d="M895.638,2456.702c0,3.995-3.239,7.234-7.234,7.234c-3.995,0-7.234-3.239-7.234-7.234
				s3.239-7.234,7.234-7.234C892.399,2449.468,895.638,2452.707,895.638,2456.702z"/>
		</g>
		<g>
			<circle style="fill:#FFFFFF;" cx="1131.983" cy="2625.338" r="7.935"/>
		</g>
		<g>
			<circle style="fill:#FF8D06;" cx="1203.292" cy="2781.809" r="13.617"/>
		</g>
		<g>
			
				<ellipse transform="matrix(0.1602 -0.9871 0.9871 0.1602 -2027.2483 3314.7061)" style="fill:#FFFFFF;" cx="934.362" cy="2848.726" rx="8.74" ry="8.74"/>
		</g>
		<g>
			<circle style="fill:#FFFFFF;" cx="2052.55" cy="2869.651" r="11.112"/>
		</g>
		<g>
			
				<ellipse transform="matrix(0.9239 -0.3827 0.3827 0.9239 -885.7198 985.3323)" style="fill:#FFFFFF;" cx="2033.936" cy="2719.07" rx="10.632" ry="10.632"/>
		</g>
		<g>
			
				<ellipse transform="matrix(0.1602 -0.9871 0.9871 0.1602 -1607.7727 3955.6082)" style="fill:#FFFFFF;" cx="1520.745" cy="2922.66" rx="8.298" ry="8.298"/>
		</g>
		<g>
			
				<ellipse transform="matrix(0.2298 -0.9732 0.9732 0.2298 -797.1154 4529.1841)" style="fill:#FF8D06;" cx="2462.878" cy="2768.191" rx="23.323" ry="23.323"/>
		</g>
		<g>
			
				<ellipse transform="matrix(0.2298 -0.9732 0.9732 0.2298 -493.6564 4337.3027)" style="fill:#FF8D06;" cx="2493.379" cy="2480.532" rx="15.385" ry="15.385"/>
		</g>
		<g>
			<circle style="fill:#FFFFFF;" cx="2500.355" cy="2184.597" r="18.537"/>
		</g>
	</g>
</g>
</svg>
